<svg width="47" height="47" viewBox="0 0 47 47" fill="none" xmlns="http://www.w3.org/2000/svg">
<path d="M13.6518 21.4192C13.6121 21.081 13.5916 20.7368 13.5916 20.3879C13.5916 15.5623 17.5035 11.6504 22.3291 11.6504C26.8266 11.6504 30.5304 15.0484 31.0133 19.4172L31.0666 19.4171C35.356 19.4171 38.8333 22.8943 38.8333 27.1837C38.8333 31.4731 35.356 34.9504 31.0666 34.9504H14.5624C10.8092 34.9504 7.7666 31.9078 7.7666 28.1546C7.7666 24.7101 10.3292 21.8642 13.6518 21.4192ZM13.6518 21.4192C13.9497 21.3793 14.2537 21.3587 14.5624 21.3587C16.464 21.3587 18.1831 22.1397 19.4166 23.3985" stroke="black" stroke-width="1.94167" stroke-linecap="round"/>
</svg>
