<svg width="47" height="47" viewBox="0 0 47 47" fill="none" xmlns="http://www.w3.org/2000/svg">
<path d="M12.0508 28.9558C12.0508 35.673 17.8206 39.0315 22.9662 39.0315C28.1117 39.0315 32.0582 36.9452 34.3014 32.3144C36.6163 27.5355 34.7212 21.3991 32.2023 18.0405C30.523 21.3991 27.1644 22.2387 27.1644 22.2387C27.1644 22.2387 28.8437 12.163 22.1265 7.96484C22.1265 18.8802 12.0508 18.8802 12.0508 28.9558Z" stroke="black" stroke-width="1.94167" stroke-linecap="round" stroke-linejoin="round"/>
<path d="M28.6326 34.4021C28.6326 37.4884 25.9816 39.0315 23.6174 39.0315C21.2532 39.0315 19.4399 38.073 18.4093 35.9453C17.3457 33.7495 18.2164 30.9301 19.3737 29.387C19.3737 29.387 20.9169 26.6865 24.0032 24.7576C24.0032 29.7728 28.6326 29.7728 28.6326 34.4021Z" stroke="black" stroke-width="1.94167" stroke-linecap="round" stroke-linejoin="round"/>
</svg>
