<svg width="47" height="47" viewBox="0 0 47 47" fill="none" xmlns="http://www.w3.org/2000/svg">
<path d="M13.6518 17.5364C13.6121 17.1982 13.5916 16.854 13.5916 16.5051C13.5916 11.6795 17.5035 7.76758 22.3291 7.76758C26.8266 7.76758 30.5304 11.1656 31.0133 15.5344L31.0666 15.5342C35.356 15.5342 38.8333 19.0115 38.8333 23.3009C38.8333 24.7156 38.4551 26.0419 37.7942 27.1842M13.6518 17.5364C10.3292 17.9813 7.7666 20.8273 7.7666 24.2717C7.7666 27.6954 10.2982 30.5277 13.5916 30.9988M13.6518 17.5364C13.9497 17.4965 14.2537 17.4759 14.5624 17.4759C16.464 17.4759 18.1831 18.2569 19.4166 19.5156M15.5333 36.8926L16.6066 37.4292C17.1532 37.7026 17.7966 37.7026 18.3433 37.4292L20.4899 36.3559C21.0366 36.0826 21.68 36.0826 22.2266 36.3559L24.2338 37.3595C24.857 37.6711 25.5994 37.6249 26.1792 37.2384L27.0771 36.6398C27.7293 36.205 28.5789 36.205 29.2311 36.6398L29.6104 36.8926M15.5333 27.1842L16.6066 27.7209C17.1532 27.9942 17.7966 27.9942 18.3433 27.7209L20.4899 26.6476C21.0366 26.3743 21.68 26.3743 22.2266 26.6476L24.2338 27.6512C24.857 27.9628 25.5994 27.9165 26.1792 27.53L27.0771 26.9314C27.7293 26.4966 28.5789 26.4966 29.2311 26.9314L29.6104 27.1842M19.4166 32.0384L20.4899 31.5017C21.0366 31.2284 21.68 31.2284 22.2266 31.5017L24.3733 32.5751C24.9199 32.8484 25.5633 32.8484 26.1099 32.5751L28.1171 31.5715C28.7403 31.2599 29.4827 31.3061 30.0625 31.6926L30.9604 32.2912C31.6126 32.726 32.4623 32.726 33.1145 32.2912L33.4937 32.0384" stroke="black" stroke-width="1.94167" stroke-linecap="round"/>
</svg>
