<svg width="48" height="47" viewBox="0 0 48 47" fill="none" xmlns="http://www.w3.org/2000/svg">
<path d="M25.8407 38.0607C25.8407 38.5969 24.9714 39.0315 23.899 39.0315C22.8267 39.0315 21.9574 38.5969 21.9574 38.0607M29.724 29.3232C29.724 30.3955 27.9854 31.2648 25.8407 31.2648C23.696 31.2648 21.9574 30.3955 21.9574 29.3232M27.7824 33.2065C27.7824 34.2789 26.0437 35.1482 23.899 35.1482M29.724 24.469C29.724 26.0775 26.6814 27.3815 22.9282 27.3815C19.175 27.3815 16.1324 26.0775 16.1324 24.469M29.724 20.5857C29.724 22.1942 26.2468 23.4982 21.9574 23.4982C17.6679 23.4982 14.1907 22.1942 14.1907 20.5857M14.1907 15.7315C14.1907 17.8762 18.5373 19.6148 23.899 19.6148C29.2608 19.6148 33.6074 17.8762 33.6074 15.7315C33.6074 13.5868 29.2608 11.8482 23.899 11.8482M35.549 11.8482C35.549 13.9929 30.3331 15.7315 23.899 15.7315C17.4649 15.7315 12.249 13.9929 12.249 11.8482C12.249 9.70347 17.4649 7.96484 23.899 7.96484C30.3331 7.96484 35.549 9.70347 35.549 11.8482Z" stroke="black" stroke-width="1.94167" stroke-linecap="round" stroke-linejoin="round"/>
</svg>
