<svg width="1032" height="1032" viewBox="0 0 1032 1032" fill="none" xmlns="http://www.w3.org/2000/svg">
<g clip-path="url(#clip0_1026_1367)" filter="url(#filter0_d_1026_1367)">
<rect x="4" width="1024" height="1024" fill="white"/>
<path d="M303.51 473.108C329.888 473.108 348.73 492.656 348.73 520.212V597.698H315.521V527.513C315.521 512.44 306.101 502.077 292.44 502.077C278.074 502.077 267.004 512.44 267.004 525.629L266.769 524.922V597.698H232.383V475.934H266.769V491.243C274.07 480.173 287.73 473.108 303.51 473.108Z" fill="black"/>
<path d="M468.67 433.069H503.056V597.698H468.67V580.269C459.014 592.988 444.883 600.524 427.69 600.524C395.188 600.524 371.636 574.146 371.636 536.698C371.636 499.486 395.188 473.108 427.69 473.108C444.883 473.108 459.014 480.644 468.67 493.363V433.069ZM437.581 571.555C455.716 571.555 468.67 557.188 468.67 536.698C468.67 516.444 455.716 502.077 437.581 502.077C418.504 502.077 405.08 516.444 405.08 536.698C405.08 557.188 418.504 571.555 437.581 571.555Z" fill="black"/>
<path d="M593.061 600.524C556.791 600.524 526.409 571.32 526.409 536.698C526.409 502.077 556.791 473.108 593.061 473.108C629.096 473.108 659.243 502.077 659.243 536.698C659.243 571.32 629.096 600.524 593.061 600.524ZM593.061 571.555C611.196 571.555 626.505 555.54 626.505 536.698C626.505 517.857 611.196 502.077 593.061 502.077C574.691 502.077 559.382 517.857 559.382 536.698C559.382 555.54 574.691 571.555 593.061 571.555Z" fill="black"/>
<path d="M827.354 473.108C852.79 473.108 872.339 492.656 872.339 520.212V597.933H839.366V526.1C839.366 511.969 830.416 502.077 817.698 502.077C804.038 502.077 794.146 511.262 794.146 524.216V597.933H761.173V526.1C761.173 511.969 752.223 502.077 739.741 502.077C725.845 502.077 716.189 511.262 716.189 524.216V597.698H681.803V475.934H716.189V491.949C722.077 480.409 734.088 473.108 749.161 473.108C765.883 473.108 780.25 481.587 787.787 495.247C794.146 481.822 809.219 473.108 827.354 473.108Z" fill="black"/>
<path d="M918.432 459.212C907.834 459.212 899.591 450.733 899.591 440.371C899.591 430.714 907.834 422 918.432 422C928.56 422 936.803 430.714 936.803 440.371C936.803 450.733 928.56 459.212 918.432 459.212ZM901.004 597.698V475.934H935.39V597.698H901.004Z" fill="black"/>
<circle cx="145.824" cy="537.162" r="64" fill="#FF9595"/>
<path d="M678.816 274.431L390.048 224.255L1028.51 -0.512695L678.816 274.431Z" fill="#5590E7"/>
<path d="M0.928223 361.984V0H1028.51L0.928223 361.984Z" fill="#8FBCFF"/>
</g>
<defs>
<filter id="filter0_d_1026_1367" x="0" y="0" width="1032" height="1032" filterUnits="userSpaceOnUse" color-interpolation-filters="sRGB">
<feFlood flood-opacity="0" result="BackgroundImageFix"/>
<feColorMatrix in="SourceAlpha" type="matrix" values="0 0 0 0 0 0 0 0 0 0 0 0 0 0 0 0 0 0 127 0" result="hardAlpha"/>
<feOffset dy="4"/>
<feGaussianBlur stdDeviation="2"/>
<feComposite in2="hardAlpha" operator="out"/>
<feColorMatrix type="matrix" values="0 0 0 0 0 0 0 0 0 0 0 0 0 0 0 0 0 0 0.25 0"/>
<feBlend mode="normal" in2="BackgroundImageFix" result="effect1_dropShadow_1026_1367"/>
<feBlend mode="normal" in="SourceGraphic" in2="effect1_dropShadow_1026_1367" result="shape"/>
</filter>
<clipPath id="clip0_1026_1367">
<rect width="1024" height="1024" fill="white" transform="translate(4)"/>
</clipPath>
</defs>
</svg>
