<svg width="47" height="47" viewBox="0 0 47 47" fill="none" xmlns="http://www.w3.org/2000/svg">
<path d="M13.6518 17.5364C13.6121 17.1982 13.5916 16.854 13.5916 16.5051C13.5916 11.6795 17.5035 7.76758 22.3291 7.76758C26.8266 7.76758 30.5304 11.1656 31.0133 15.5344L31.0666 15.5342C35.356 15.5342 38.8333 19.0115 38.8333 23.3009C38.8333 26.9199 36.3581 29.9607 33.0083 30.8229M13.6518 17.5364C10.3292 17.9814 7.7666 20.8273 7.7666 24.2717C7.7666 27.6954 10.2982 30.5277 13.5916 30.9988M13.6518 17.5364C13.9497 17.4965 14.2537 17.4759 14.5624 17.4759C16.464 17.4759 18.1831 18.2569 19.4166 19.5156M28.1541 31.936L30.2153 34.2917C31.2186 35.4384 31.0934 37.1833 29.9366 38.1749C29.4237 38.6145 28.7889 38.8342 28.1541 38.8342C27.5193 38.8342 26.8845 38.6145 26.3716 38.1749C25.2148 37.1833 25.0896 35.4384 26.0929 34.2917L28.1541 31.936ZM18.4458 32.0384L20.507 34.3941C21.5103 35.5407 21.385 37.2857 20.2282 38.2773C19.7154 38.7168 19.0806 38.9366 18.4458 38.9366C17.811 38.9366 17.1762 38.7168 16.6633 38.2773C15.5065 37.2857 15.3812 35.5407 16.3845 34.3941L18.4458 32.0384ZM23.2999 24.1694L25.3612 26.5251C26.3645 27.6717 26.2392 29.4167 25.0824 30.4082C24.5696 30.8478 23.9347 31.0676 23.2999 31.0676C22.6651 31.0676 22.0303 30.8478 21.5175 30.4082C20.3607 29.4167 20.2354 27.6717 21.2387 26.5251L23.2999 24.1694Z" stroke="black" stroke-width="1.94167" stroke-linecap="round"/>
</svg>
