<svg width="48" height="47" viewBox="0 0 48 47" fill="none" xmlns="http://www.w3.org/2000/svg">
<path d="M37.9068 15.5342L31.7702 18.9861M31.7702 18.9861L27.1678 21.575M31.7702 18.9861L33.067 14.2708M31.7702 18.9861L36.61 20.2496M27.1678 21.575L24.0995 19.8491M27.1678 21.575L27.1676 25.0268M24.0995 19.8491L24.0995 14.6713M24.0995 19.8491L21.031 21.575M27.1676 25.0268L24.0995 26.7528M27.1676 25.0268L31.7701 27.6157M10.2921 31.0676L16.4287 27.6157M16.4287 27.6157L21.0312 25.0268M16.4287 27.6157L11.5889 26.3523M16.4287 27.6157L15.1319 32.3311M21.0312 25.0268L21.031 21.575M21.0312 25.0268L24.0995 26.7528M21.031 21.575L16.4286 18.9861M24.0995 26.7528L24.0995 31.9305M24.0995 38.8342V31.9305M24.0995 31.9305L27.6424 35.3824M24.0995 31.9305L20.5565 35.3824M24.0995 7.76758V14.6713M24.0995 14.6713L27.6424 11.2194M24.0995 14.6713L20.5565 11.2194M37.9067 31.0676L31.7701 27.6157M31.7701 27.6157L33.0669 32.3311M31.7701 27.6157L36.6099 26.3523M10.292 15.5343L16.4286 18.9861M16.4286 18.9861L11.5888 20.2496M16.4286 18.9861L15.1318 14.2708" stroke="black" stroke-width="1.94167" stroke-linecap="round" stroke-linejoin="round"/>
</svg>
