<svg width="47" height="47" viewBox="0 0 47 47" fill="none" xmlns="http://www.w3.org/2000/svg">
<path d="M13.6518 19.4778C13.6121 19.1396 13.5916 18.7954 13.5916 18.4465C13.5916 13.6209 17.5035 9.70898 22.3291 9.70898C26.8266 9.70898 30.5304 13.107 31.0133 17.4758L31.0666 17.4757C35.356 17.4757 38.8333 20.9529 38.8333 25.2423C38.8333 28.8613 36.3581 31.9021 33.0083 32.7643M13.6518 19.4778C10.3292 19.9228 7.7666 22.7687 7.7666 26.2132C7.7666 29.6368 10.2982 32.4691 13.5916 32.9402M13.6518 19.4778C13.9497 19.4379 14.2537 19.4173 14.5624 19.4173C16.464 19.4173 18.1831 20.1983 19.4166 21.4571M26.1021 28.1554L23.2999 33.009M23.2999 33.009L20.4972 37.8635M23.2999 33.009L28.905 33.0094M23.2999 33.009L17.695 33.0094M23.2999 33.009L26.1026 37.8633M23.2999 33.009L20.4976 28.1552" stroke="black" stroke-width="1.94167" stroke-linecap="round"/>
</svg>
