<svg width="47" height="47" viewBox="0 0 47 47" fill="none" xmlns="http://www.w3.org/2000/svg">
<path d="M13.6518 21.6169C13.6121 21.2786 13.5916 20.9345 13.5916 20.5855C13.5916 15.76 17.5035 11.848 22.3291 11.848C24.5413 11.848 26.5615 12.6702 28.1008 14.0255M13.6518 21.6169C10.3292 22.0618 7.7666 24.9078 7.7666 28.3522C7.7666 32.1054 10.8092 35.148 14.5624 35.148H31.0666C35.356 35.148 38.8333 31.6708 38.8333 27.3814C38.8333 25.4368 38.1186 23.6592 36.9377 22.2967L36.9076 22.2623M13.6518 21.6169C13.9497 21.577 14.2537 21.5564 14.5624 21.5564C16.464 21.5564 18.1831 22.3374 19.4166 23.5961M32.0364 8.93555V10.1491M41.7447 18.6439H40.5312M38.9012 11.7791L38.0431 12.6372M28.1008 14.0255C29.1603 13.1218 30.5346 12.5762 32.0364 12.5762C35.3875 12.5762 38.1041 15.2928 38.1041 18.6439C38.1041 19.9999 37.6593 21.252 36.9076 22.2623M28.1008 14.0255L28.1357 14.0565C29.7067 15.4546 30.7697 17.4113 31.0133 19.6149L31.0666 19.6147C33.395 19.6147 35.4841 20.6393 36.9076 22.2623" stroke="black" stroke-width="1.94167" stroke-linecap="round"/>
</svg>
