<svg width="47" height="47" viewBox="0 0 47 47" fill="none" xmlns="http://www.w3.org/2000/svg">
<path d="M31.467 15.5342L31.467 14.5634L31.4637 14.5634L31.467 15.5342ZM31.4137 15.5344L30.4487 15.6411L30.5446 16.5082L31.4169 16.5053L31.4137 15.5344ZM19.1236 20.1951C19.4989 20.5781 20.1135 20.5843 20.4965 20.2091C20.8794 19.8338 20.8857 19.2191 20.5104 18.8362L19.817 19.5156L19.1236 20.1951ZM33.1667 29.8827C32.6474 30.0164 32.3348 30.5456 32.4685 31.0649C32.6021 31.5841 33.1314 31.8967 33.6506 31.7631L33.4087 30.8229L33.1667 29.8827ZM13.8545 31.9598C14.3853 32.0357 14.8771 31.667 14.953 31.1362C15.029 30.6055 14.6602 30.1136 14.1295 30.0377L13.992 30.9988L13.8545 31.9598ZM17.8753 31.0676L17.0987 30.4851C16.9114 30.7347 16.8556 31.0592 16.9487 31.357C17.0417 31.6549 17.2723 31.8899 17.5683 31.9886L17.8753 31.0676ZM23.7003 23.3009H24.6712C24.6712 22.883 24.4038 22.512 24.0073 22.3799C23.6109 22.2478 23.1744 22.3841 22.9237 22.7184L23.7003 23.3009ZM29.5253 31.0676L30.302 31.6501C30.4892 31.4004 30.545 31.076 30.452 30.7781C30.359 30.4802 30.1284 30.2453 29.8323 30.1466L29.5253 31.0676ZM23.7003 38.8342H22.7295C22.7295 39.2521 22.9969 39.6231 23.3933 39.7553C23.7898 39.8874 24.2263 39.751 24.477 39.4167L23.7003 38.8342ZM23.7003 29.1259H22.7295C22.7295 29.5438 22.9969 29.9148 23.3933 30.0469L23.7003 29.1259ZM23.7003 33.0092H24.6712C24.6712 32.5914 24.4038 32.2204 24.0073 32.0882L23.7003 33.0092ZM13.992 16.5051H14.9628C14.9628 12.2157 18.4401 8.73841 22.7295 8.73841V7.76758V6.79674C17.3677 6.79674 13.0212 11.1433 13.0212 16.5051H13.992ZM31.467 15.5342V16.5051C35.2202 16.5051 38.2628 19.5477 38.2628 23.3009H39.2337H40.2045C40.2045 18.4753 36.2926 14.5634 31.467 14.5634V15.5342ZM14.0522 17.5364L15.0164 17.423C14.9811 17.1223 14.9628 16.816 14.9628 16.5051H13.992H13.0212C13.0212 16.892 13.0438 17.274 13.088 17.6498L14.0522 17.5364ZM8.16699 24.2717H9.13783C9.13783 21.3201 11.334 18.8799 14.1811 18.4986L14.0522 17.5364L13.9234 16.5741C10.1251 17.0828 7.19616 20.3344 7.19616 24.2717H8.16699ZM14.0522 17.5364L14.1811 18.4986C14.4363 18.4645 14.6973 18.4467 14.9628 18.4467V17.4759V16.5051C14.6108 16.5051 14.2638 16.5286 13.9234 16.5741L14.0522 17.5364ZM31.4137 15.5344L31.4169 16.5053L31.4702 16.5051L31.467 15.5342L31.4637 14.5634L31.4104 14.5636L31.4137 15.5344ZM22.7295 7.76758V8.73841C26.7266 8.73841 30.0196 11.7587 30.4487 15.6411L31.4137 15.5344L32.3786 15.4278C31.842 10.5725 27.7274 6.79674 22.7295 6.79674V7.76758ZM14.9628 17.4759V18.4467C16.5929 18.4467 18.0652 19.1151 19.1236 20.1951L19.817 19.5156L20.5104 18.8362C19.1019 17.3988 17.1358 16.5051 14.9628 16.5051V17.4759ZM39.2337 23.3009H38.2628C38.2628 26.4662 36.098 29.1282 33.1667 29.8827L33.4087 30.8229L33.6506 31.7631C37.419 30.7932 40.2045 27.3736 40.2045 23.3009H39.2337ZM13.992 30.9988L14.1295 30.0377C11.3075 29.6341 9.13783 27.2054 9.13783 24.2717H8.16699H7.19616C7.19616 28.1853 10.0898 31.4213 13.8545 31.9598L13.992 30.9988ZM17.8753 31.0676L18.652 31.6501L24.477 23.8834L23.7003 23.3009L22.9237 22.7184L17.0987 30.4851L17.8753 31.0676ZM29.5253 31.0676L28.7487 30.4851L22.9237 38.2517L23.7003 38.8342L24.477 39.4167L30.302 31.6501L29.5253 31.0676ZM29.5253 31.0676L29.8323 30.1466L24.0073 28.2049L23.7003 29.1259L23.3933 30.0469L29.2183 31.9886L29.5253 31.0676ZM23.7003 29.1259H24.6712V23.3009H23.7003H22.7295V29.1259H23.7003ZM23.7003 33.0092H22.7295V38.8342H23.7003H24.6712V33.0092H23.7003ZM17.8753 31.0676L17.5683 31.9886L23.3933 33.9303L23.7003 33.0092L24.0073 32.0882L18.1823 30.1466L17.8753 31.0676Z" fill="black"/>
</svg>
