<svg width="48" height="47" viewBox="0 0 48 47" fill="none" xmlns="http://www.w3.org/2000/svg">
<path d="M10.6313 31.391L12.1307 30.6412C13.224 30.0946 14.5108 30.0946 15.6041 30.6412L18.6029 32.1407C19.6962 32.6873 20.983 32.6873 22.0763 32.1407L24.7962 30.7807C26.0426 30.1575 27.5274 30.25 28.6869 31.023L29.5119 31.573C30.8163 32.4426 32.5157 32.4426 33.8201 31.573L34.0931 31.391M8.36621 25.2425L17.9513 12.063C21.0746 7.76853 27.2958 7.2804 31.0506 11.0352C32.5778 12.5624 32.9564 14.8955 31.9905 16.8272L31.6662 17.4758L31.1814 16.991C28.9461 14.7558 25.1193 15.9821 24.5996 19.1003C23.776 24.0418 30.4718 27.694 35.2019 26.0434C36.63 25.5451 38.0617 25.2425 39.4329 25.2425M15.4855 37.216L16.9849 37.9657C18.0781 38.5123 19.365 38.5123 20.4582 37.9657L23.4571 36.4662C24.5504 35.9196 25.8372 35.9196 26.9305 36.4662L29.6503 37.8262C30.8968 38.4494 32.3816 38.357 33.5411 37.5839L34.3661 37.034C35.6705 36.1644 37.3699 36.1644 38.6743 37.034L38.9473 37.216" stroke="black" stroke-width="1.94167" stroke-linecap="round" stroke-linejoin="round"/>
</svg>
