<svg width="47" height="47" viewBox="0 0 47 47" fill="none" xmlns="http://www.w3.org/2000/svg">
<path d="M14.2461 11.4349C14.6728 10.7962 15.2793 10.2985 15.9888 10.0046C16.6984 9.71067 17.4792 9.63376 18.2325 9.7836C18.9858 9.93344 19.6778 10.3033 20.2209 10.8464C20.764 11.3895 21.1338 12.0814 21.2837 12.8347C21.4335 13.588 21.3566 14.3688 21.0627 15.0784C20.7687 15.788 20.271 16.3945 19.6324 16.8212C18.9938 17.2479 18.243 17.4757 17.4749 17.4757L7.7666 17.4757M18.1294 35.1664C18.5561 35.8051 19.1626 36.3028 19.8722 36.5967C20.5818 36.8906 21.3626 36.9675 22.1159 36.8177C22.8692 36.6679 23.5611 36.298 24.1042 35.7549C24.6473 35.2118 25.0171 34.5199 25.167 33.7666C25.3168 33.0133 25.2399 32.2325 24.946 31.5229C24.6521 30.8133 24.1543 30.2068 23.5157 29.7801C22.8771 29.3534 22.1263 29.1256 21.3583 29.1256H7.7666M25.2416 23.3007H32.0374C34.7183 23.3007 36.8916 21.1274 36.8916 18.4465C36.8916 15.7656 34.7183 13.5923 32.0374 13.5923C29.937 13.5923 28.1481 14.9264 27.472 16.7935M21.3583 23.3007H10.6791M38.8333 29.1257H28.1541" stroke="black" stroke-width="1.94167" stroke-linecap="round" stroke-linejoin="round"/>
</svg>
